<svg width="128" height="128" viewBox="0 0 128 128" fill="none" xmlns="http://www.w3.org/2000/svg">
<path d="M17.9647 8.98237C17.9647 13.9432 13.9432 17.9647 8.98237 17.9647C4.02154 17.9647 0 13.9432 0 8.98237C0 4.02154 4.02154 0 8.98237 0C13.9432 0 17.9647 4.02154 17.9647 8.98237Z" fill="#6FC5C6"/>
<path d="M17.9647 119.021C17.9647 123.982 13.9432 128.003 8.98237 128.003C4.02154 128.003 0 123.982 0 119.021C0 114.06 4.02154 110.038 8.98237 110.038C13.9432 110.038 17.9647 114.06 17.9647 119.021Z" fill="#5FADAD"/>
<path d="M128 8.98237C128 13.9432 123.978 17.9647 119.018 17.9647C114.057 17.9647 110.035 13.9432 110.035 8.98237C110.035 4.02154 114.057 0 119.018 0C123.978 0 128 4.02154 128 8.98237Z" fill="#6FC5C6"/>
<path d="M128 119.021C128 123.982 123.978 128.003 119.018 128.003C114.057 128.003 110.035 123.982 110.035 119.021C110.035 114.06 114.057 110.038 119.018 110.038C123.978 110.038 128 114.06 128 119.021Z" fill="#5FADAD"/>
<path d="M56.1398 119.018C56.1398 112.825 54.92 106.693 52.5501 100.971C50.1803 95.2498 46.7067 90.0512 42.3277 85.6722C37.9487 81.2933 32.7501 77.8197 27.0287 75.4498C21.3073 73.0799 15.1751 71.8601 8.98234 71.8601L8.98234 97.7967C11.7691 97.7967 14.5286 98.3456 17.1032 99.4121C19.6778 100.479 22.0172 102.042 23.9877 104.012C25.9583 105.983 27.5214 108.322 28.5879 110.897C29.6543 113.471 30.2032 116.231 30.2032 119.018H56.1398Z" fill="#5FADAD"/>
<path d="M8.98114 56.1429C15.1739 56.1429 21.3061 54.9231 27.0275 52.5533C32.7489 50.1834 37.9475 46.7098 42.3265 42.3308C46.7055 37.9518 50.1791 32.7532 52.5489 27.0318C54.9188 21.3104 56.1386 15.1783 56.1386 8.98545L30.202 8.98545C30.202 11.7722 29.6531 14.5317 28.5867 17.1063C27.5202 19.681 25.9571 22.0203 23.9865 23.9909C22.016 25.9614 19.6766 27.5245 17.102 28.591C14.5274 29.6574 11.7679 30.2063 8.98114 30.2063V56.1429Z" fill="#6FC5C6"/>
<path d="M71.8589 8.98737C71.8589 15.1802 73.0787 21.3123 75.4486 27.0338C77.8185 32.7552 81.2921 37.9538 85.671 42.3327C90.05 46.7117 95.2486 50.1853 100.97 52.5552C106.691 54.9251 112.824 56.1448 119.016 56.1448V30.2082C116.23 30.2082 113.47 29.6593 110.896 28.5929C108.321 27.5264 105.982 25.9633 104.011 23.9928C102.04 22.0222 100.477 19.6829 99.4109 17.1082C98.3444 14.5336 97.7955 11.7741 97.7955 8.98737H71.8589Z" fill="#6FC5C6"/>
<path d="M119.018 71.8621C112.825 71.8621 106.693 73.0818 100.971 75.4517C95.2498 77.8216 90.0512 81.2952 85.6722 85.6742C81.2933 90.0531 77.8197 95.2517 75.4498 100.973C73.0799 106.695 71.8601 112.827 71.8601 119.02H97.7967C97.7967 116.233 98.3456 113.473 99.4121 110.899C100.479 108.324 102.042 105.985 104.012 104.014C105.983 102.044 108.322 100.48 110.897 99.414C113.471 98.3475 116.231 97.7987 119.018 97.7987V71.8621Z" fill="#5FADAD"/>
</svg>
